<svg width="77" height="78" viewBox="0 0 77 78" fill="none" xmlns="http://www.w3.org/2000/svg">
<rect y="0.333374" width="77" height="77" rx="38.5" fill="#15151D"/>
<g clip-path="url(#clip0_27_738)">
<path fill-rule="evenodd" clip-rule="evenodd" d="M41.6603 51.4113C45.8339 49.7439 51.0304 48.6763 57.25 48.2083C57.25 48.0818 57.25 40.8983 57.25 26.6577H57.25C57.25 26.1399 56.8303 25.7202 56.3125 25.7202C56.3046 25.7202 56.2967 25.7203 56.2888 25.7205C50.9842 25.8548 45.6796 27.1008 40.375 29.4583C40.375 29.5418 40.375 36.5692 40.375 50.5406H40.375C40.375 51.0584 40.7947 51.4782 41.3125 51.4782C41.4317 51.4782 41.5497 51.4555 41.6603 51.4113Z" fill="#6A6E87"/>
<path opacity="0.3" fill-rule="evenodd" clip-rule="evenodd" d="M35.3397 51.4113C31.1662 49.7439 25.9696 48.6763 19.75 48.2083C19.75 48.0818 19.75 40.8983 19.75 26.6577H19.75C19.75 26.1399 20.1698 25.7202 20.6875 25.7202C20.6954 25.7202 20.7033 25.7203 20.7112 25.7205C26.0158 25.8548 31.3204 27.1008 36.625 29.4583C36.625 29.5418 36.625 36.5692 36.625 50.5406H36.625C36.625 51.0584 36.2053 51.4782 35.6875 51.4782C35.5684 51.4782 35.4503 51.4555 35.3397 51.4113Z" fill="#6A6E87"/>
</g>
<defs>
<clipPath id="clip0_27_738">
<rect width="45" height="45" fill="white" transform="translate(16 16.3334)"/>
</clipPath>
</defs>
</svg>
