<svg width="77" height="78" viewBox="0 0 77 78" fill="none" xmlns="http://www.w3.org/2000/svg">
<rect y="0.666687" width="77" height="77" rx="38.5" fill="#15151D"/>
<path opacity="0.3" d="M34.75 26.9792C34.75 25.4259 33.4908 24.1667 31.9375 24.1667C30.3842 24.1667 29.125 25.4259 29.125 26.9792V45.7292C29.125 47.2825 30.3842 48.5417 31.9375 48.5417C33.4908 48.5417 34.75 47.2825 34.75 45.7292V26.9792Z" fill="#6A6E87"/>
<path opacity="0.3" d="M44.125 36.3542C44.125 34.8009 42.8658 33.5417 41.3125 33.5417C39.7592 33.5417 38.5 34.8009 38.5 36.3542V45.7292C38.5 47.2825 39.7592 48.5417 41.3125 48.5417C42.8658 48.5417 44.125 47.2825 44.125 45.7292V36.3542Z" fill="#6A6E87"/>
<path d="M25.375 52.2917H53.5C54.5355 52.2917 55.375 53.1312 55.375 54.1667C55.375 55.2022 54.5355 56.0417 53.5 56.0417H23.5C22.4645 56.0417 21.625 55.2022 21.625 54.1667V24.1667C21.625 23.1312 22.4645 22.2917 23.5 22.2917C24.5355 22.2917 25.375 23.1312 25.375 24.1667V52.2917Z" fill="#6A6E87"/>
<path opacity="0.3" d="M53.5 40.1042C53.5 38.5509 52.2408 37.2917 50.6875 37.2917C49.1342 37.2917 47.875 38.5509 47.875 40.1042V45.7292C47.875 47.2825 49.1342 48.5417 50.6875 48.5417C52.2408 48.5417 53.5 47.2825 53.5 45.7292V40.1042Z" fill="#6A6E87"/>
</svg>
