<svg width="24" height="24" viewBox="0 0 24 24" fill="none" xmlns="http://www.w3.org/2000/svg">
<path d="M16.2414 6.34311L6.34187 16.2426C5.95135 16.6331 5.95135 17.2663 6.34187 17.6568C6.7324 18.0473 7.36556 18.0473 7.75609 17.6568L17.6556 7.75732C18.0461 7.36679 18.0461 6.73363 17.6556 6.34311C17.2651 5.95258 16.6319 5.95258 16.2414 6.34311Z" fill="#FF6DC1"/>
<path opacity="0.3" d="M17.6554 16.2426L7.75593 6.34309C7.36541 5.95257 6.73225 5.95257 6.34172 6.34309C5.9512 6.73362 5.9512 7.36678 6.34172 7.75731L16.2412 17.6568C16.6317 18.0473 17.2649 18.0473 17.6554 17.6568C18.046 17.2663 18.046 16.6331 17.6554 16.2426Z" fill="#FF6DC1"/>
</svg>
