<svg width="77" height="78" viewBox="0 0 77 78" fill="none" xmlns="http://www.w3.org/2000/svg">
<rect y="0.666687" width="77" height="77" rx="38.5" fill="#15151D"/>
<path opacity="0.3" d="M44.125 57.9167C49.3027 57.9167 53.5 53.7194 53.5 48.5417C53.5 43.364 49.3027 39.1667 44.125 39.1667C38.9473 39.1667 34.75 43.364 34.75 48.5417C34.75 53.7194 38.9473 57.9167 44.125 57.9167Z" fill="#6A6E87"/>
<path opacity="0.3" d="M32.875 57.9167C38.0527 57.9167 42.25 53.7194 42.25 48.5417C42.25 43.364 38.0527 39.1667 32.875 39.1667C27.6973 39.1667 23.5 43.364 23.5 48.5417C23.5 53.7194 27.6973 57.9167 32.875 57.9167Z" fill="#6A6E87"/>
<path opacity="0.3" d="M29.125 46.6667C34.3027 46.6667 38.5 42.4694 38.5 37.2917C38.5 32.114 34.3027 27.9167 29.125 27.9167C23.9473 27.9167 19.75 32.114 19.75 37.2917C19.75 42.4694 23.9473 46.6667 29.125 46.6667Z" fill="#6A6E87"/>
<path opacity="0.3" d="M47.875 46.6667C53.0527 46.6667 57.25 42.4694 57.25 37.2917C57.25 32.114 53.0527 27.9167 47.875 27.9167C42.6973 27.9167 38.5 32.114 38.5 37.2917C38.5 42.4694 42.6973 46.6667 47.875 46.6667Z" fill="#6A6E87"/>
<path opacity="0.3" d="M38.5 39.1667C43.6777 39.1667 47.875 34.9694 47.875 29.7917C47.875 24.614 43.6777 20.4167 38.5 20.4167C33.3223 20.4167 29.125 24.614 29.125 29.7917C29.125 34.9694 33.3223 39.1667 38.5 39.1667Z" fill="#6A6E87"/>
</svg>
