<svg width="45" height="45" viewBox="0 0 45 45" fill="none" xmlns="http://www.w3.org/2000/svg">
<rect width="45" height="45" rx="22.5" fill="#15151D"/>
<path opacity="0.3" fill-rule="evenodd" clip-rule="evenodd" d="M23.2617 26.2917L26.4716 21.9584H24.0642V17.6251L19.2493 24.1251H21.6568V26.2917H15.9993C15.401 26.2917 14.916 25.8067 14.916 25.2084V14.3751C14.916 13.7768 15.401 13.2917 15.9993 13.2917H28.9993C29.5977 13.2917 30.0827 13.7768 30.0827 14.3751V25.2084C30.0827 25.8067 29.5977 26.2917 28.9993 26.2917H23.2617Z" fill="#E7E9F7"/>
<path fill-rule="evenodd" clip-rule="evenodd" d="M20.1213 22.9489L19.25 24.1252H21.6574V28.4585L26.4722 21.9585H26.25L31.3912 18.2454C31.6337 18.0703 31.9723 18.1249 32.1475 18.3674C32.2141 18.4597 32.25 18.5707 32.25 18.6845V29.5418C32.25 30.7384 31.28 31.7085 30.0833 31.7085H14.9167C13.72 31.7085 12.75 30.7384 12.75 29.5418V18.6845C12.75 18.3854 12.9925 18.1429 13.2917 18.1429C13.4055 18.1429 13.5165 18.1787 13.6088 18.2454L20.1213 22.9489Z" fill="#E7E9F7"/>
</svg>
