<svg width="77" height="77" viewBox="0 0 77 77" fill="none" xmlns="http://www.w3.org/2000/svg">
<rect width="77" height="77" rx="38.5" fill="#15151D"/>
<g clip-path="url(#clip0_27_689)">
<path opacity="0.3" d="M41.3125 21.625C41.3125 20.5895 40.473 19.75 39.4375 19.75C38.402 19.75 37.5625 20.5895 37.5625 21.625V25.375C37.5625 26.4105 38.402 27.25 39.4375 27.25C40.473 27.25 41.3125 26.4105 41.3125 25.375V21.625Z" fill="#6A6E87"/>
<path opacity="0.3" d="M41.3125 47.875C41.3125 46.8395 40.473 46 39.4375 46C38.402 46 37.5625 46.8395 37.5625 47.875V53.5C37.5625 54.5355 38.402 55.375 39.4375 55.375C40.473 55.375 41.3125 54.5355 41.3125 53.5V47.875Z" fill="#6A6E87"/>
<path fill-rule="evenodd" clip-rule="evenodd" d="M45.0502 31.0825C44.5277 30.4175 43.8448 29.8891 43.0017 29.4972C42.1586 29.1053 41.3452 28.9094 40.5614 28.9094C40.1577 28.9094 39.748 28.945 39.3323 29.0162C38.9167 29.0875 38.5427 29.2241 38.2102 29.4259C37.8777 29.6278 37.5986 29.8891 37.373 30.2097C37.1473 30.5303 37.0345 30.94 37.0345 31.4387C37.0345 31.8662 37.1236 32.2225 37.3017 32.5075C37.4798 32.7925 37.7411 33.0419 38.0855 33.2556C38.4298 33.4694 38.8395 33.6653 39.3145 33.8434C39.7895 34.0216 40.3239 34.2056 40.9177 34.3956C41.7727 34.6806 42.6633 34.9953 43.5895 35.3397C44.5158 35.6841 45.3589 36.1412 46.1189 36.7112C46.8789 37.2812 47.5083 37.9878 48.007 38.8309C48.5058 39.6741 48.7552 40.725 48.7552 41.9837C48.7552 43.4325 48.488 44.6853 47.9536 45.7422C47.4192 46.7991 46.7008 47.6719 45.7983 48.3606C44.8958 49.0494 43.8627 49.56 42.6989 49.8925C41.5352 50.225 40.3358 50.3912 39.1008 50.3912C37.2958 50.3912 35.5502 50.0766 33.8639 49.4472C32.1776 48.8178 30.7764 47.9213 29.6602 46.7575L33.6502 42.6962C34.2677 43.4562 35.0811 44.0916 36.0905 44.6022C37.0999 45.1128 38.1033 45.3681 39.1008 45.3681C39.552 45.3681 39.9914 45.3206 40.4189 45.2256C40.8464 45.1306 41.2205 44.9762 41.5411 44.7625C41.8617 44.5487 42.117 44.2637 42.307 43.9075C42.497 43.5512 42.592 43.1237 42.592 42.625C42.592 42.15 42.4733 41.7462 42.2358 41.4137C41.9983 41.0812 41.6598 40.7784 41.2205 40.5053C40.7811 40.2322 40.2348 39.9828 39.5817 39.7572C38.9286 39.5316 38.1864 39.2881 37.3552 39.0269C36.5477 38.7656 35.758 38.4569 34.9861 38.1006C34.2142 37.7444 33.5255 37.2872 32.9198 36.7291C32.3142 36.1709 31.8273 35.4941 31.4592 34.6984C31.0911 33.9028 30.907 32.935 30.907 31.795C30.907 30.3937 31.192 29.1944 31.762 28.1969C32.332 27.1994 33.0802 26.38 34.0064 25.7387C34.9327 25.0975 35.9777 24.6284 37.1414 24.3316C38.3052 24.0347 39.4808 23.8862 40.6683 23.8862C42.0933 23.8862 43.548 24.1475 45.0323 24.67C46.5167 25.1925 47.817 25.9644 48.9333 26.9856L45.0502 31.0825Z" fill="#6A6E87"/>
</g>
<defs>
<clipPath id="clip0_27_689">
<rect width="45" height="45" fill="white" transform="translate(16 16)"/>
</clipPath>
</defs>
</svg>
