<svg width="77" height="77" viewBox="0 0 77 77" fill="none" xmlns="http://www.w3.org/2000/svg">
<rect width="77" height="77" rx="38.5" fill="#15151D"/>
<path opacity="0.3" d="M51.625 36.625H55.375C56.4105 36.625 57.25 37.4645 57.25 38.5C57.25 39.5355 56.4105 40.375 55.375 40.375H51.625C50.5895 40.375 49.75 39.5355 49.75 38.5C49.75 37.4645 50.5895 36.625 51.625 36.625ZM21.625 36.625H25.375C26.4105 36.625 27.25 37.4645 27.25 38.5C27.25 39.5355 26.4105 40.375 25.375 40.375H21.625C20.5895 40.375 19.75 39.5355 19.75 38.5C19.75 37.4645 20.5895 36.625 21.625 36.625ZM38.5 19.75C39.5355 19.75 40.375 20.5895 40.375 21.625V25.375C40.375 26.4105 39.5355 27.25 38.5 27.25C37.4645 27.25 36.625 26.4105 36.625 25.375V21.625C36.625 20.5895 37.4645 19.75 38.5 19.75ZM38.5 49.75C39.5355 49.75 40.375 50.5895 40.375 51.625V55.375C40.375 56.4105 39.5355 57.25 38.5 57.25C37.4645 57.25 36.625 56.4105 36.625 55.375V51.625C36.625 50.5895 37.4645 49.75 38.5 49.75Z" fill="#6A6E87"/>
<path opacity="0.3" d="M38.5 42.25C40.5711 42.25 42.25 40.5711 42.25 38.5C42.25 36.4289 40.5711 34.75 38.5 34.75C36.4289 34.75 34.75 36.4289 34.75 38.5C34.75 40.5711 36.4289 42.25 38.5 42.25Z" fill="#6A6E87"/>
<path d="M38.5 47.875C43.6777 47.875 47.875 43.6777 47.875 38.5C47.875 33.3223 43.6777 29.125 38.5 29.125C33.3223 29.125 29.125 33.3223 29.125 38.5C29.125 43.6777 33.3223 47.875 38.5 47.875ZM38.5 51.625C31.2513 51.625 25.375 45.7487 25.375 38.5C25.375 31.2513 31.2513 25.375 38.5 25.375C45.7487 25.375 51.625 31.2513 51.625 38.5C51.625 45.7487 45.7487 51.625 38.5 51.625Z" fill="#6A6E87"/>
</svg>
